<svg width="34" height="35" viewBox="0 0 34 35" fill="none" xmlns="http://www.w3.org/2000/svg">
<path d="M33.0774 21.7056L30.0714 19.9697C30.3748 18.3327 30.3748 16.6532 30.0714 15.0161L33.0774 13.2803C33.4232 13.0827 33.5784 12.6734 33.4655 12.2924C32.6823 9.78027 31.3486 7.5081 29.6057 5.61698C29.3375 5.32767 28.9 5.2571 28.5613 5.45468L25.5553 7.19056C24.2922 6.10387 22.8386 5.26416 21.265 4.71376V1.24905C21.265 0.853893 20.9898 0.508129 20.6017 0.423452C18.012 -0.155175 15.3587 -0.12695 12.896 0.423452C12.5079 0.508129 12.2327 0.853893 12.2327 1.24905V4.72081C10.6662 5.27827 9.21259 6.11799 7.94244 7.19762L4.94346 5.46174C4.59769 5.26416 4.16725 5.32767 3.89911 5.62404C2.15617 7.5081 0.822505 9.78027 0.0392422 12.2994C-0.0807171 12.6805 0.0815807 13.0897 0.427346 13.2873L3.43338 15.0232C3.12996 16.6603 3.12996 18.3397 3.43338 19.9768L0.427346 21.7127C0.0815807 21.9103 -0.0736606 22.3195 0.0392422 22.7006C0.822505 25.2127 2.15617 27.4848 3.89911 29.376C4.16725 29.6653 4.60475 29.7358 4.94346 29.5383L7.94949 27.8024C9.21259 28.8891 10.6662 29.7288 12.2398 30.2792V33.7509C12.2398 34.1461 12.515 34.4919 12.9031 34.5765C15.4928 35.1552 18.146 35.1269 20.6087 34.5765C20.9968 34.4919 21.272 34.1461 21.272 33.7509V30.2792C22.8386 29.7217 24.2922 28.882 25.5623 27.8024L28.5684 29.5383C28.9141 29.7358 29.3446 29.6723 29.6127 29.376C31.3557 27.4919 32.6893 25.2197 33.4726 22.7006C33.5784 22.3125 33.4232 21.9032 33.0774 21.7056ZM16.7489 23.1381C13.637 23.1381 11.1037 20.6048 11.1037 17.4929C11.1037 14.3811 13.637 11.8478 16.7489 11.8478C19.8607 11.8478 22.394 14.3811 22.394 17.4929C22.394 20.6048 19.8607 23.1381 16.7489 23.1381Z" fill="white"/>
</svg>
