<svg width="50" height="50" viewBox="0 0 50 50" fill="none" xmlns="http://www.w3.org/2000/svg">
<path d="M47.9404 28.6928H44.3893C43.9184 28.6928 43.4667 28.8799 43.1338 29.2129C42.8008 29.5459 42.6137 29.9975 42.6137 30.4684V42.8974H7.10228V7.38598H23.0824C23.5533 7.38598 24.005 7.19891 24.3379 6.86592C24.6709 6.53294 24.858 6.08132 24.858 5.6104V2.05926C24.858 1.58835 24.6709 1.13673 24.3379 0.803744C24.005 0.47076 23.5533 0.283691 23.0824 0.283691H5.32671C3.91398 0.283691 2.55911 0.844897 1.56016 1.84385C0.561206 2.8428 0 4.19767 0 5.6104L0 44.673C0 46.0857 0.561206 47.4406 1.56016 48.4395C2.55911 49.4385 3.91398 49.9997 5.32671 49.9997H44.3893C45.802 49.9997 47.1569 49.4385 48.1558 48.4395C49.1548 47.4406 49.716 46.0857 49.716 44.673V30.4684C49.716 29.9975 49.5289 29.5459 49.1959 29.2129C48.8629 28.8799 48.4113 28.6928 47.9404 28.6928Z" fill="#02B6FF"/>
<path d="M32.3224 7.44946L42.5515 17.6785L21.0845 39.1455C20.6023 39.6277 19.9701 39.9313 19.2923 40.0061L11.2195 40.8972C9.99858 41.0323 8.96704 39.9999 9.10287 38.779L10.0013 30.6985C10.0766 30.0215 10.38 29.3902 10.8617 28.9086L32.3224 7.44946ZM48.8781 5.92653L44.0752 1.12362C42.577 -0.374541 40.1472 -0.374541 38.649 1.12362L34.1306 5.64208L44.3596 15.8711L48.8781 11.3527C50.3763 9.85371 50.3763 7.42469 48.8781 5.92653Z" fill="#02B6FF"/>
</svg>
