<svg width="30" height="30" viewBox="0 0 30 30" fill="none" xmlns="http://www.w3.org/2000/svg">
<path d="M20.3528 9.19355C19.4758 3.79234 17.4073 0 15 0C12.5927 0 10.5242 3.79234 9.64718 9.19355H20.3528ZM9.19355 15C9.19355 16.3427 9.26613 17.631 9.39315 18.871H20.6008C20.7278 17.631 20.8004 16.3427 20.8004 15C20.8004 13.6573 20.7278 12.369 20.6008 11.129H9.39315C9.26613 12.369 9.19355 13.6573 9.19355 15ZM28.8327 9.19355C27.1028 5.08669 23.6008 1.91129 19.2762 0.629032C20.752 2.67339 21.7681 5.75202 22.3004 9.19355H28.8327ZM10.7177 0.629032C6.39919 1.91129 2.89113 5.08669 1.16734 9.19355H7.6996C8.22581 5.75202 9.24194 2.67339 10.7177 0.629032ZM29.4798 11.129H22.5423C22.6694 12.3992 22.7419 13.6996 22.7419 15C22.7419 16.3004 22.6694 17.6008 22.5423 18.871H29.4738C29.8065 17.631 29.994 16.3427 29.994 15C29.994 13.6573 29.8065 12.369 29.4798 11.129ZM7.25806 15C7.25806 13.6996 7.33065 12.3992 7.45766 11.129H0.520161C0.193548 12.369 0 13.6573 0 15C0 16.3427 0.193548 17.631 0.520161 18.871H7.45161C7.33065 17.6008 7.25806 16.3004 7.25806 15ZM9.64718 20.8065C10.5242 26.2077 12.5927 30 15 30C17.4073 30 19.4758 26.2077 20.3528 20.8065H9.64718ZM19.2823 29.371C23.6008 28.0887 27.1089 24.9133 28.8387 20.8065H22.3065C21.7742 24.248 20.7581 27.3266 19.2823 29.371ZM1.16734 20.8065C2.89718 24.9133 6.39919 28.0887 10.7238 29.371C9.24798 27.3266 8.23186 24.248 7.6996 20.8065H1.16734Z" fill="#02B6FF"/>
</svg>
