<svg width="25" height="40" viewBox="0 0 25 40" fill="none" xmlns="http://www.w3.org/2000/svg">
<path d="M21.25 0H3.75C1.67969 0 0 1.67969 0 3.75V36.25C0 38.3203 1.67969 40 3.75 40H21.25C23.3203 40 25 38.3203 25 36.25V3.75C25 1.67969 23.3203 0 21.25 0ZM12.5 37.5C11.1172 37.5 10 36.3828 10 35C10 33.6172 11.1172 32.5 12.5 32.5C13.8828 32.5 15 33.6172 15 35C15 36.3828 13.8828 37.5 12.5 37.5ZM21.25 29.0625C21.25 29.5781 20.8281 30 20.3125 30H4.6875C4.17188 30 3.75 29.5781 3.75 29.0625V4.6875C3.75 4.17188 4.17188 3.75 4.6875 3.75H20.3125C20.8281 3.75 21.25 4.17188 21.25 4.6875V29.0625Z" fill="#02B6FF"/>
</svg>
